<svg width="653" height="856" viewBox="0 0 653 856" fill="none" xmlns="http://www.w3.org/2000/svg">
<rect x="136" y="99.5" width="152.039" height="651" fill="#F2F2F2"/>
<rect x="407" y="424.5" width="136" height="326" fill="#F2F2F2"/>
<rect x="242" y="424.5" width="301" height="111" fill="#F2F2F2"/>
<rect x="242" y="639.5" width="300.725" height="111" fill="#F2F2F2"/>
<path d="M136.5 750.5H544L653 856H176L136.5 750.5Z" fill="#9453FF"/>
<path d="M287.5 104H410.5L560.5 424.5H287.5V104Z" fill="#9453FF"/>
<rect x="288" y="535.5" width="119" height="104" fill="#9453FF"/>
<rect x="288" y="535.5" width="119" height="104" fill="#9453FF"/>
<path d="M287.5 99.5H410.5L560.5 424.5H287.5V99.5Z" fill="#9453FF"/>
<path d="M136.5 750.5H544L653 856H176L136.5 750.5Z" fill="#9453FF"/>
<path d="M1 0L46 34V77L91 111V68L136 99.5V750.5L0 642.5V145.5L46 181.5V225L91 259.5V186.5L43.5 150.5V107L91 142.5V186.5V215.5L136 249.5V145.5L91 111L46 77L1 43.5V0Z" fill="#9453FF"/>
<path d="M411 104L653 425V856L543 752V425L411 104Z" fill="#9453FF"/>
<path d="M410.5 99.5L653 425V856L543 752V425L410.5 99.5Z" fill="#9453FF"/>
<rect x="136" y="99.5" width="152.039" height="651" fill="#F2F2F2"/>
<rect x="407" y="424.5" width="136" height="326" fill="#F2F2F2"/>
<rect x="242" y="424.5" width="301" height="111" fill="#F2F2F2"/>
<rect x="242" y="639.5" width="300.725" height="111" fill="#F2F2F2"/>
</svg>
